# xmcd CD database file
#
# Track frame offsets:
#	150
#	8129
#	26949
#	43408
#	61070
#	82368
#	97616
#	116476
#	135386
#	152832
#	171017
#	190057
#	210212
#	232639
#	250559
#	270471
#	291213
#	307984
#	329236
#
# Disc length: 4645 seconds
#
# Revision: 0
# Processed by: cddbd v1.5.2PL0 Copyright (c) Steve Scherf et al.
# Submitted via: CDex 1.51
#
DISCID=f8122313
DTITLE=Cumbieros - Cumbias
DYEAR=2000
DGENRE=Salsa
TTITLE0=Intro
TTITLE1=Sabor salao - Super Potro
TTITLE2=La guaracha - Alberto Pedraza
TTITLE3=Mala mujer - Sonora Matancera
TTITLE4=Cumbia sobre el río - Celso Piña
TTITLE5=Los luchadores - Conjunto África
TTITLE6=Corazón enamorado - Grupo Colombia
TTITLE7=Que nadie sepa mi sufrir - Sonora Dinamita
TTITLE8=El diario de un borracho - Alfredo Gutiérrez
TTITLE9=Cumbia Santa María - Pancho Barraza
TTITLE10=Qué bello - Sonora Tropicana
TTITLE11=Cumbia electrónica - Condor
TTITLE12=Rumba quimbumba - Grupo Kual
TTITLE13=Tiene espinas el rosal - Cañaveral
TTITLE14=Corazón partío - Sonora Margarita
TTITLE15=Cumbia buena - Mike Laure
TTITLE16=Llorar - Socios del Ritmo
TTITLE17=Rumba chachachá - Grupo Kual
TTITLE18=Cumbia Agogó - DRA
EXTD=YEAR: 2000
EXTT0=
EXTT1=
EXTT2=
EXTT3=
EXTT4=
EXTT5=
EXTT6=
EXTT7=
EXTT8=
EXTT9=
EXTT10=
EXTT11=
EXTT12=
EXTT13=
EXTT14=
EXTT15=
EXTT16=
EXTT17=
EXTT18=
PLAYORDER=
